<?xml version="1.0" encoding="utf-8"?>
<!-- Generator: Adobe Illustrator 24.0.2, SVG Export Plug-In . SVG Version: 6.00 Build 0)  -->
<svg version="1.1" id="Capa_1" xmlns="http://www.w3.org/2000/svg" xmlns:xlink="http://www.w3.org/1999/xlink" x="0px" y="0px"
	 viewBox="0 0 502.8 282.2" style="enable-background:new 0 0 502.8 282.2;" xml:space="preserve">
<style type="text/css">
	.st0{fill:#FFFFFF;}
	.st1{fill:#7A7FF7;}
</style>
<g>
	<g>
		<path class="st0" d="M218.6,178.2c10.5,25.3,20.6,49.9,30.8,74.5c1.5,3.7,2.9,7.5,4.6,11c1.6,3.3,0.5,4.7-2.6,5.8
			c-37.8,13.7-75.5,13.7-113.3,0c-3.6-1.3-4-2.9-2.6-6.3c11.1-26.5,22.1-53.1,33.1-79.7c0.7-1.6,1.3-3.3,2.2-5.4
			c-17.3-7.9-29.5-20.4-35.5-38.2c-4.4-13-4.4-26.2-0.2-39.3c8.6-26.6,32.5-43.5,61.1-43.3c26.6,0.2,50.6,18.2,58.5,44.2
			c4.7,15.4,3.6,30.6-3.3,45.2C244.6,161.4,233.5,171.5,218.6,178.2z M207,150.3c16.6-10.1,22.9-23.1,18.9-38.4
			c-3.3-12.9-15.5-23.2-28.3-23.9c-15.3-0.8-28.1,7.1-33.2,20.6c-2.5,6.6-2.9,13.3-0.9,20.1c2.9,10,9.5,16.9,18.9,21.5
			c-3.9,9.4-7.6,18.4-11.3,27.4c11.5,7,35.9,6.9,47,0C214.5,168.5,210.8,159.5,207,150.3z"/>
		<path class="st0" d="M29.8,175.9c0,11.6,0,22.7,0,34c-10.2,0-19.8,0-29.8,0C0,160.1,0,110.4,0,60c7.3,0,14.6-0.4,21.8,0.3
			c1.7,0.1,3,3.7,4.9,6.2c16.6-9.6,34.6-12,53.5-5.7c12.7,4.3,22.9,12,30.7,22.9c15.5,21.8,15.4,51.2-0.3,73
			C92.9,181.3,67.3,187.6,29.8,175.9z M59.5,152.2C77.6,152.2,92,138,92,120c0-17.7-14.3-32-32.1-32c-18.1,0-32.5,14.2-32.5,32.2
			C27.4,137.8,41.8,152.1,59.5,152.2z"/>
		<path class="st0" d="M424.3,179.9c-9.8,0-19.4,0-29.7,0c0-2.1,0-4.1,0-6c-0.1-20,0.1-40-0.4-60c-0.3-13.2-11.3-23.2-24.6-23.3
			c-13.4-0.1-24.1,9.4-24.5,23.1c-0.6,20-0.3,40-0.4,60c0,2,0,3.9,0,6.1c-10.2,0-19.8,0-29.8,0c0-39.8,0-79.5,0-119.8
			c7.2,0,14.3-0.1,21.4,0.1c1,0,2.2,1.2,2.8,2.2c0.9,1.5,1.4,3.3,2.3,5.4c10.4-6.4,21.3-9.5,33.3-8.9c26.6,1.4,49.1,23.3,49.9,50
			c0.7,22.8,0.1,45.7,0.1,68.5C424.8,178.2,424.5,179,424.3,179.9z"/>
		<path class="st0" d="M439.6,30.2c10.3,0,19.9,0,30.2,0c0,9.9,0,19.6,0,29.8c11.2,0,21.8,0,32.7,0c0,10.2,0,19.9,0,30.1
			c-10.9,0-21.5,0-31.9,0c0,12.6-1.2,24.8,0.3,36.7c1.8,14.2,14.5,24.3,28.8,25.4c0.8,0.1,1.6,0.2,2.6,0.3c0.2,1.2,0.4,2.4,0.4,3.5
			c0,8.6,0,17.3,0,27.1c-5.7-0.8-11-1.1-16-2.3c-27.5-6.6-47.1-31.8-47.2-60.2c0-28.3,0-56.6,0-84.9
			C439.6,33.9,439.6,32.1,439.6,30.2z"/>
		<path class="st0" d="M270,60.3c10.1,0,19.7,0,29.5,0c0,40,0,79.7,0,119.6c-9.9,0-19.5,0-29.5,0C270,140.1,270,100.3,270,60.3z"/>
		<path class="st0" d="M223.9,0.2c10.2,0,20.2,0,30.5,0c0,2.8,0,5.5,0,8.7c-7,0-13.9,0-21.2,0c0,2.5,0,4.5,0,7c6.4,0,12.7,0,19.3,0
			c0,2.9,0,5.3,0,8.1c-6.5,0-12.8,0-19.4,0c0,2.4,0,4.3,0,6.7c7,0,13.9,0,21.3,0c0,3.2,0,5.9,0,8.9c-10.1,0-20.1,0-30.5,0
			C223.9,26.6,223.9,13.5,223.9,0.2z"/>
		<path class="st0" d="M212.5,0.4c0,13.4,0,26.3,0,39.5c-2.9,0-5.5,0-8.8,0c0-5.1,0-10.1,0-15.4c-6.2,0-11.8,0-17.9,0
			c0,5.1,0,10,0,15.3c-3.2,0-5.9,0-9,0c0-13.1,0-26.2,0-39.5c2.8,0,5.4,0,8.7,0c0,5.1,0,10.1,0,15.4c6.2,0,11.8,0,17.9,0
			c0-5.1,0-10,0-15.3C206.7,0.4,209.5,0.4,212.5,0.4z"/>
		<path class="st0" d="M134.9,9.2c0-3.5,0-6.1,0-8.9c10.2,0,20.1,0,30.5,0c0,2.7,0,5.3,0,8.6c-3.3,0.2-6.6,0.3-10.5,0.5
			c0,10.2,0,20.1,0,30.4c-3.2,0-5.9,0-9.2,0c0-10,0-20.1,0-30.5C141.8,9.2,138.5,9.2,134.9,9.2z"/>
		<path class="st0" d="M492.9,20.1c-5.8,0.1-10.2-4.2-10.3-9.9c-0.1-5.7,4.2-10.1,10-10.2c5.9-0.1,10.2,4,10.3,9.9
			C502.9,15.7,498.7,20,492.9,20.1z M492.8,2.3c-4.2,0-7.5,3.2-7.6,7.5c-0.1,4.5,3.1,8,7.5,8c4.2,0,7.5-3.2,7.6-7.5
			C500.4,5.8,497.2,2.3,492.8,2.3z"/>
		<path class="st0" d="M496.5,16.4c-2-2.4-3.2-3.8-4.8-5.7c-0.6,1.8-1.1,3-1.5,4.3c-0.3,0-0.6-0.1-1-0.1c0-3.1,0-6.1,0-10.4
			c2.6,0.9,5.9,1.1,7,2.7C497.4,8.8,496.5,12,496.5,16.4z"/>
	</g>
	<path class="st1" d="M171.2,177.4c0,0,7.4,5.1,23.6,5.1s23.4-5.1,23.4-5.1l37.4,90c0,0-17.1,15.7-61.8,14.7
		c-44.7-1-61-14.2-61-14.2L171.2,177.4z"/>
</g>
</svg>
